<svg width="804" height="269" viewBox="0 0 804 269" fill="none" xmlns="http://www.w3.org/2000/svg">
<path d="M48.8307 106.126C46.2037 120.315 46.3327 134.877 49.2108 149.017" stroke="black" stroke-opacity="0.87" stroke-width="0.5" stroke-miterlimit="10" stroke-dasharray="4 4"/>
<path d="M260.991 84.1929C253.05 64.9389 239.867 48.3008 222.943 36.1707C206.018 24.0407 186.03 16.9056 165.253 15.577C144.476 14.2484 123.743 18.7797 105.412 28.6553C87.0814 38.531 71.8889 53.3548 61.5623 71.4406" stroke="black" stroke-opacity="0.87" stroke-width="0.5" stroke-miterlimit="10" stroke-dasharray="4 4"/>
<path d="M58.5125 176.04C68.1769 195.516 83.3324 211.733 102.107 222.688C120.881 233.643 142.453 238.856 164.156 237.683C185.859 236.51 206.743 229.003 224.229 216.088C241.714 203.174 255.035 185.418 262.546 165.013" stroke="black" stroke-opacity="0.87" stroke-width="0.5" stroke-miterlimit="10" stroke-dasharray="4 4"/>
<path d="M217.9 26.0602C197.374 13.8641 173.608 8.2441 149.796 9.95496C125.984 11.6658 103.265 20.6257 84.691 35.631" stroke="black" stroke-opacity="0.87" stroke-width="0.75" stroke-miterlimit="10"/>
<path d="M217.9 17.4057C197.374 5.20975 173.608 -0.410191 149.796 1.30067C125.984 3.01153 103.265 11.9713 84.691 26.9765" stroke="black" stroke-opacity="0.87" stroke-width="0.75" stroke-miterlimit="10"/>
<path d="M269.532 90.99C262.349 68.5702 248.581 48.8357 230.022 34.3599" stroke="black" stroke-opacity="0.87" stroke-width="0.75" stroke-miterlimit="10"/>
<path d="M267.138 168.976C268.191 166.266 269.146 163.508 270 160.704" stroke="black" stroke-opacity="0.87" stroke-width="0.75" stroke-miterlimit="10"/>
<path d="M136.26 241.494C158.736 245.755 181.967 243.337 203.084 234.538C224.201 225.739 242.279 210.944 255.086 191.982" stroke="black" stroke-opacity="0.87" stroke-width="0.75" stroke-miterlimit="10"/>
<path d="M139.225 245.399C161.7 249.66 184.931 247.241 206.048 238.442C227.165 229.643 245.244 214.849 258.051 195.887" stroke="black" stroke-opacity="0.87" stroke-width="0.75" stroke-miterlimit="10"/>
<path d="M69.2679 202.552C83.2654 218.95 101.517 231.161 122.01 237.842" stroke="black" stroke-opacity="0.87" stroke-width="0.75" stroke-miterlimit="10"/>
<path d="M49.8111 193.06C60.9837 211.501 77.0299 226.497 96.1803 236.394" stroke="black" stroke-opacity="0.87" stroke-width="0.75" stroke-miterlimit="10"/>
<path d="M52.104 175.857C54.7119 181.465 57.7611 186.857 61.2227 191.982" stroke="black" stroke-opacity="0.87" stroke-width="0.75" stroke-miterlimit="10"/>
<path d="M43.0433 106.126C40.6076 119.988 40.6658 134.174 43.2153 148.016" stroke="black" stroke-opacity="0.87" stroke-width="0.75" stroke-miterlimit="10"/>
<path d="M53.8129 73.8176C53.271 74.8894 52.7445 75.9708 52.2332 77.0616" stroke="black" stroke-opacity="0.87" stroke-width="0.75" stroke-miterlimit="10"/>
<path d="M30.5713 173.077H63.1386L69.5921 161.253L159.655 161.629V160.533L68.9392 160.155L62.4836 171.981H30.5659L30.5713 173.077Z" fill="black" fill-opacity="0.87"/>
<path d="M89.5945 166.034L165.184 166.48L165.178 167.576L89.5881 167.13L89.5945 166.034Z" fill="black" fill-opacity="0.87"/>
<path d="M20.0604 158.709H57.6964L64.094 148.564H144.331V147.468H63.4849L57.0873 157.613H20.0538L20.0604 158.709Z" fill="black" fill-opacity="0.87"/>
<path d="M3.764 167.164H59.1785L67.0057 154.309H96.8452V153.213H66.3911L58.5628 166.07H3.76513L3.764 167.164Z" fill="black" fill-opacity="0.87"/>
<path d="M2.36083 168.979C2.8277 168.979 3.28407 168.84 3.67227 168.581C4.06047 168.321 4.36304 167.953 4.54175 167.521C4.72046 167.09 4.76728 166.615 4.67628 166.157C4.58528 165.699 4.3605 165.278 4.03045 164.947C3.70041 164.617 3.27992 164.392 2.82205 164.301C2.36418 164.21 1.88951 164.256 1.45813 164.435C1.02674 164.613 0.657958 164.916 0.398425 165.304C0.138892 165.692 0.00027601 166.149 5.93673e-05 166.616C0.000638958 167.242 0.249516 167.843 0.692084 168.286C1.13465 168.729 1.7348 168.978 2.36083 168.979ZM2.36083 165.351C2.61113 165.351 2.8558 165.426 3.06389 165.565C3.27199 165.704 3.43412 165.902 3.52985 166.133C3.62559 166.364 3.65057 166.619 3.60167 166.864C3.55276 167.11 3.43218 167.336 3.25512 167.513C3.07806 167.69 2.85246 167.81 2.60695 167.859C2.36144 167.907 2.10699 167.882 1.87581 167.786C1.64464 167.69 1.44712 167.528 1.30822 167.32C1.16932 167.111 1.09531 166.866 1.09553 166.616C1.0964 166.281 1.23002 165.959 1.46715 165.722C1.70428 165.485 2.02563 165.352 2.36083 165.351V165.351Z" fill="black" fill-opacity="0.87"/>
<path d="M18.3766 160.521C18.8436 160.522 19.3002 160.383 19.6886 160.124C20.0769 159.864 20.3797 159.495 20.5585 159.064C20.7373 158.632 20.7841 158.157 20.6931 157.699C20.602 157.241 20.3772 156.82 20.0469 156.49C19.7167 156.159 19.296 155.934 18.8379 155.843C18.3799 155.752 17.9052 155.799 17.4737 155.978C17.0423 156.157 16.6736 156.46 16.4143 156.848C16.155 157.237 16.0167 157.693 16.0169 158.161C16.018 158.786 16.267 159.386 16.7093 159.829C17.1516 160.271 17.7511 160.52 18.3766 160.521V160.521ZM18.3766 156.894C18.6268 156.894 18.8715 156.968 19.0797 157.107C19.2879 157.245 19.4502 157.443 19.5462 157.674C19.6422 157.905 19.6674 158.16 19.6188 158.405C19.5702 158.651 19.4499 158.877 19.2731 159.054C19.0963 159.231 18.871 159.352 18.6256 159.401C18.3802 159.45 18.1257 159.425 17.8944 159.329C17.6632 159.234 17.4654 159.072 17.3262 158.864C17.187 158.656 17.1126 158.411 17.1123 158.161C17.1126 157.825 17.2459 157.503 17.4828 157.266C17.7198 157.028 18.0412 156.895 18.3766 156.894V156.894Z" fill="black" fill-opacity="0.87"/>
<path d="M28.7572 174.891C29.2242 174.891 29.6806 174.753 30.0688 174.493C30.457 174.234 30.7596 173.865 30.9383 173.433C31.117 173.002 31.1637 172.527 31.0726 172.069C30.9815 171.611 30.7567 171.19 30.4266 170.859C30.0964 170.529 29.6758 170.304 29.2179 170.213C28.7599 170.122 28.2852 170.169 27.8539 170.348C27.4225 170.526 27.0538 170.829 26.7944 171.217C26.535 171.606 26.3965 172.062 26.3965 172.529C26.3974 173.156 26.6464 173.756 27.089 174.198C27.5315 174.641 28.1314 174.89 28.7572 174.891V174.891ZM28.7572 171.264C29.0075 171.264 29.2522 171.338 29.4602 171.477C29.6683 171.616 29.8304 171.814 29.9262 172.045C30.022 172.276 30.047 172.531 29.9982 172.776C29.9494 173.022 29.8289 173.247 29.6519 173.425C29.475 173.602 29.2495 173.722 29.0041 173.771C28.7587 173.82 28.5043 173.795 28.2731 173.699C28.0419 173.603 27.8443 173.441 27.7052 173.233C27.5662 173.025 27.492 172.78 27.492 172.529C27.4926 172.194 27.6261 171.872 27.8632 171.635C28.1004 171.398 28.4218 171.264 28.7572 171.264V171.264Z" fill="black" fill-opacity="0.87"/>
<path d="M87.7792 169.356C88.2461 169.356 88.7025 169.217 89.0907 168.958C89.4789 168.698 89.7815 168.329 89.9602 167.898C90.1388 167.466 90.1856 166.991 90.0945 166.533C90.0035 166.075 89.7786 165.654 89.4485 165.324C89.1183 164.994 88.6977 164.769 88.2397 164.678C87.7818 164.587 87.3071 164.633 86.8757 164.812C86.4444 164.991 86.0756 165.294 85.8162 165.682C85.5568 166.07 85.4184 166.527 85.4184 166.994C85.419 167.62 85.6679 168.221 86.1105 168.663C86.5531 169.106 87.1532 169.355 87.7792 169.356V169.356ZM87.7792 165.728C88.0294 165.728 88.274 165.803 88.4821 165.942C88.6902 166.081 88.8524 166.278 88.9481 166.51C89.0439 166.741 89.0689 166.995 89.0201 167.241C88.9712 167.487 88.8507 167.712 88.6738 167.889C88.4968 168.066 88.2714 168.187 88.026 168.236C87.7805 168.284 87.5262 168.259 87.295 168.164C87.0638 168.068 86.8661 167.905 86.7271 167.697C86.5881 167.489 86.5139 167.244 86.5139 166.994C86.5142 166.658 86.6475 166.337 86.8848 166.099C87.122 165.862 87.4437 165.729 87.7792 165.728V165.728Z" fill="black" fill-opacity="0.87"/>
<path d="M134.381 184.775H134.709L198.698 184.509V183.413L135.036 183.678L130.468 175.308H107.317V176.404H129.81L134.381 184.775Z" fill="black" fill-opacity="0.87"/>
<path d="M202.602 179.226L202.608 180.322L149.097 180.588L149.091 179.492L202.602 179.226Z" fill="black" fill-opacity="0.87"/>
<path d="M130.528 193.762H187.846V192.666H131.132L126.604 185.483H99.8743V186.579H125.999L130.528 193.762Z" fill="black" fill-opacity="0.87"/>
<path d="M132.578 189.692H192.355V188.596H133.2L127.658 179.492H88.3335V180.588H127.037L132.578 189.692Z" fill="black" fill-opacity="0.87"/>
<path d="M87.3409 181.872C87.7032 181.872 88.0573 181.765 88.3585 181.564C88.6597 181.362 88.8945 181.076 89.0331 180.741C89.1718 180.406 89.2081 180.038 89.1374 179.682C89.0667 179.327 88.8922 179.001 88.6361 178.744C88.3799 178.488 88.0535 178.313 87.6982 178.243C87.3429 178.172 86.9747 178.208 86.64 178.347C86.3053 178.486 86.0193 178.721 85.818 179.022C85.6167 179.323 85.5093 179.678 85.5093 180.04C85.5099 180.526 85.703 180.991 86.0464 181.335C86.3898 181.679 86.8553 181.872 87.3409 181.872ZM87.3409 179.305C87.4866 179.305 87.6289 179.348 87.75 179.429C87.8711 179.51 87.9654 179.625 88.0211 179.759C88.0768 179.894 88.0913 180.042 88.0628 180.185C88.0343 180.328 87.9641 180.459 87.861 180.562C87.758 180.665 87.6268 180.735 87.4839 180.763C87.341 180.792 87.1929 180.777 87.0584 180.721C86.9239 180.665 86.809 180.571 86.7283 180.449C86.6475 180.328 86.6046 180.186 86.6048 180.04C86.6051 179.845 86.6827 179.658 86.8207 179.52C86.9588 179.382 87.1459 179.305 87.3409 179.305V179.305Z" fill="black" fill-opacity="0.87"/>
<path d="M98.6802 187.859C99.0425 187.859 99.3966 187.752 99.6978 187.551C99.999 187.349 100.234 187.063 100.372 186.728C100.511 186.393 100.547 186.025 100.477 185.67C100.406 185.314 100.232 184.988 99.9754 184.731C99.7192 184.475 99.3929 184.3 99.0376 184.23C98.6823 184.159 98.3139 184.195 97.9793 184.334C97.6446 184.473 97.3585 184.708 97.1573 185.009C96.956 185.31 96.8486 185.665 96.8486 186.027C96.8489 186.513 97.042 186.979 97.3854 187.322C97.7288 187.666 98.1946 187.859 98.6802 187.859V187.859ZM98.6802 185.291C98.8258 185.291 98.9682 185.334 99.0892 185.415C99.2103 185.496 99.3046 185.611 99.3604 185.745C99.4161 185.88 99.4306 186.028 99.4022 186.171C99.3738 186.314 99.3037 186.445 99.2008 186.548C99.0978 186.651 98.9667 186.721 98.8239 186.749C98.6811 186.778 98.533 186.763 98.3985 186.707C98.264 186.652 98.149 186.557 98.0681 186.436C97.9872 186.315 97.9441 186.173 97.9441 186.027C97.9441 185.832 98.0216 185.644 98.1597 185.506C98.2977 185.368 98.485 185.291 98.6802 185.291V185.291Z" fill="black" fill-opacity="0.87"/>
<path d="M106.028 177.687C106.39 177.687 106.744 177.58 107.045 177.379C107.347 177.178 107.582 176.891 107.721 176.557C107.859 176.222 107.896 175.853 107.825 175.498C107.755 175.142 107.58 174.816 107.324 174.559C107.068 174.303 106.742 174.128 106.386 174.058C106.031 173.987 105.663 174.023 105.328 174.162C104.993 174.3 104.707 174.535 104.506 174.836C104.304 175.138 104.197 175.492 104.197 175.855C104.198 176.34 104.391 176.806 104.734 177.149C105.077 177.493 105.542 177.686 106.028 177.687V177.687ZM106.028 175.119C106.173 175.119 106.316 175.162 106.437 175.243C106.558 175.324 106.653 175.439 106.709 175.573C106.764 175.708 106.779 175.856 106.751 175.999C106.722 176.142 106.652 176.273 106.549 176.376C106.446 176.48 106.315 176.55 106.172 176.578C106.029 176.606 105.881 176.592 105.746 176.536C105.612 176.48 105.497 176.385 105.416 176.264C105.335 176.143 105.292 176 105.293 175.855C105.293 175.66 105.37 175.473 105.508 175.335C105.646 175.197 105.833 175.12 106.028 175.119V175.119Z" fill="black" fill-opacity="0.87"/>
<path d="M147.81 181.605C148.172 181.605 148.526 181.497 148.827 181.296C149.127 181.094 149.362 180.808 149.5 180.474C149.639 180.139 149.675 179.771 149.604 179.416C149.533 179.061 149.359 178.734 149.103 178.478C148.847 178.222 148.521 178.048 148.166 177.977C147.81 177.907 147.442 177.943 147.108 178.082C146.774 178.221 146.488 178.455 146.287 178.756C146.086 179.058 145.978 179.412 145.978 179.774C145.979 180.259 146.172 180.725 146.516 181.068C146.859 181.411 147.325 181.604 147.81 181.605ZM147.81 179.037C147.955 179.037 148.097 179.081 148.218 179.162C148.339 179.243 148.433 179.357 148.488 179.492C148.544 179.626 148.558 179.774 148.53 179.916C148.501 180.059 148.431 180.19 148.329 180.293C148.226 180.395 148.095 180.465 147.952 180.494C147.81 180.522 147.662 180.508 147.528 180.452C147.394 180.397 147.279 180.303 147.198 180.182C147.117 180.061 147.074 179.919 147.074 179.774C147.074 179.578 147.152 179.391 147.29 179.253C147.428 179.115 147.615 179.038 147.81 179.037V179.037Z" fill="black" fill-opacity="0.87"/>
<path d="M107.31 78.8336H130.461L135.029 70.464L198.691 70.7292V69.6333L134.376 69.3647L129.806 77.7377H107.306L107.31 78.8336Z" fill="black" fill-opacity="0.87"/>
<path d="M149.097 73.5194L202.609 73.8406L202.602 74.9365L149.091 74.6153L149.097 73.5194Z" fill="black" fill-opacity="0.87"/>
<path d="M99.8699 68.6602H126.599L131.128 61.4785H187.846V60.3826H130.529L126 67.5642H99.871L99.8699 68.6602Z" fill="black" fill-opacity="0.87"/>
<path d="M88.3334 74.6472H127.653L133.195 65.5444H192.351V64.4485H132.574L127.032 73.5513H88.329L88.3334 74.6472Z" fill="black" fill-opacity="0.87"/>
<path d="M87.3409 75.9316C87.7032 75.9316 88.0573 75.8242 88.3585 75.6228C88.6597 75.4215 88.8945 75.1353 89.0331 74.8005C89.1718 74.4657 89.2081 74.0972 89.1374 73.7418C89.0667 73.3863 88.8922 73.0598 88.6361 72.8035C88.3799 72.5473 88.0535 72.3728 87.6982 72.3021C87.3429 72.2313 86.9747 72.2676 86.64 72.4063C86.3053 72.545 86.0193 72.7799 85.818 73.0812C85.6167 73.3826 85.5093 73.7368 85.5093 74.0992C85.5099 74.5851 85.703 75.0508 86.0464 75.3943C86.3898 75.7378 86.8553 75.9311 87.3409 75.9316ZM87.3409 73.3628C87.4865 73.3628 87.6289 73.406 87.7499 73.4869C87.871 73.5678 87.9653 73.6828 88.0211 73.8174C88.0768 73.952 88.0913 74.1001 88.0629 74.2429C88.0345 74.3858 87.9644 74.517 87.8615 74.62C87.7585 74.723 87.6273 74.7931 87.4845 74.8216C87.3417 74.85 87.1938 74.8354 87.0592 74.7797C86.9247 74.7239 86.8097 74.6295 86.7288 74.5084C86.6479 74.3873 86.6048 74.2449 86.6048 74.0992C86.6051 73.904 86.6827 73.7169 86.8207 73.5788C86.9587 73.4408 87.1458 73.3631 87.3409 73.3628V73.3628Z" fill="black" fill-opacity="0.87"/>
<path d="M98.6802 69.9446C99.0425 69.9446 99.3967 69.8371 99.698 69.6357C99.9992 69.4343 100.234 69.1481 100.373 68.8132C100.511 68.4783 100.547 68.1098 100.477 67.7543C100.406 67.3988 100.231 67.0723 99.975 66.8161C99.7187 66.5599 99.3923 66.3854 99.0369 66.3149C98.6815 66.2443 98.3132 66.2807 97.9785 66.4196C97.6439 66.5584 97.3578 66.7935 97.1567 67.095C96.9556 67.3964 96.8484 67.7508 96.8486 68.1133C96.8492 68.599 97.0424 69.0646 97.3858 69.408C97.7292 69.7513 98.1947 69.9443 98.6802 69.9446V69.9446ZM98.6802 67.3768C98.8258 67.3768 98.9682 67.42 99.0892 67.5009C99.2103 67.5819 99.3046 67.6969 99.3604 67.8315C99.4161 67.966 99.4306 68.1141 99.4022 68.257C99.3738 68.3998 99.3037 68.531 99.2008 68.634C99.0978 68.737 98.9667 68.8072 98.8239 68.8356C98.6811 68.864 98.533 68.8494 98.3985 68.7937C98.264 68.7379 98.149 68.6436 98.0681 68.5224C97.9872 68.4013 97.9441 68.2589 97.9441 68.1133C97.9439 68.0165 97.9628 67.9207 97.9998 67.8313C98.0367 67.7419 98.091 67.6606 98.1594 67.5922C98.2278 67.5238 98.309 67.4695 98.3983 67.4326C98.4877 67.3956 98.5835 67.3767 98.6802 67.3768V67.3768Z" fill="black" fill-opacity="0.87"/>
<path d="M106.028 80.1138C106.39 80.114 106.744 80.0067 107.046 79.8054C107.347 79.6042 107.582 79.318 107.721 78.9831C107.859 78.6482 107.896 78.2797 107.825 77.9242C107.754 77.5686 107.58 77.242 107.324 76.9857C107.068 76.7293 106.741 76.5548 106.386 76.4841C106.03 76.4135 105.662 76.4499 105.327 76.5887C104.992 76.7275 104.706 76.9625 104.505 77.264C104.304 77.5655 104.197 77.92 104.197 78.2825C104.198 78.768 104.391 79.2334 104.734 79.5768C105.077 79.9201 105.542 80.1132 106.028 80.1138V80.1138ZM106.028 77.546C106.173 77.5458 106.316 77.5888 106.437 77.6696C106.558 77.7504 106.653 77.8653 106.708 77.9999C106.764 78.1344 106.779 78.2825 106.751 78.4255C106.722 78.5684 106.652 78.6997 106.55 78.8029C106.447 78.906 106.316 78.9762 106.173 79.0047C106.03 79.0332 105.882 79.0187 105.747 78.963C105.613 78.9073 105.498 78.8129 105.417 78.6917C105.336 78.5706 105.293 78.4282 105.293 78.2825C105.293 78.0879 105.371 77.9016 105.509 77.7642C105.647 77.6269 105.833 77.5496 106.028 77.5493V77.546Z" fill="black" fill-opacity="0.87"/>
<path d="M147.81 76.199C148.172 76.199 148.526 76.0915 148.828 75.8902C149.129 75.6888 149.364 75.4026 149.502 75.0678C149.641 74.733 149.677 74.3645 149.606 74.0091C149.536 73.6536 149.361 73.3272 149.105 73.0709C148.849 72.8146 148.523 72.6401 148.167 72.5694C147.812 72.4987 147.444 72.535 147.109 72.6737C146.774 72.8123 146.488 73.0472 146.287 73.3485C146.086 73.6499 145.978 74.0042 145.978 74.3666C145.979 74.8524 146.172 75.3181 146.515 75.6616C146.859 76.0052 147.324 76.1984 147.81 76.199V76.199ZM147.81 73.6301C147.956 73.6301 148.098 73.6733 148.219 73.7542C148.34 73.8352 148.434 73.9502 148.49 74.0847C148.546 74.2193 148.56 74.3674 148.532 74.5103C148.504 74.6531 148.433 74.7843 148.331 74.8873C148.228 74.9903 148.096 75.0605 147.954 75.0889C147.811 75.1173 147.663 75.1027 147.528 75.047C147.394 74.9912 147.279 74.8968 147.198 74.7757C147.117 74.6546 147.074 74.5122 147.074 74.3666C147.074 74.1714 147.152 73.9842 147.29 73.8461C147.428 73.7081 147.615 73.6304 147.81 73.6301V73.6301Z" fill="black" fill-opacity="0.87"/>
<path d="M87.5132 100.278L176.697 99.7533V98.6574L88.1661 99.1803L81.7127 87.3552H49.1454V88.4512H81.0576L87.5132 100.278Z" fill="black" fill-opacity="0.87"/>
<path d="M175.455 93.2678L175.46 94.3638L108.164 94.3638L108.159 93.2679L175.455 93.2678Z" fill="black" fill-opacity="0.87"/>
<path d="M82.0598 112.97H116.25V111.875H82.6635L76.2659 101.729H38.6287V102.825H75.6634L82.0598 112.97Z" fill="black" fill-opacity="0.87"/>
<path d="M94.4396 145.171H128.629V144.075H95.0432L88.6457 133.93H51.0085V135.026H88.0431L94.4396 145.171Z" fill="black" fill-opacity="0.87"/>
<path d="M84.9596 107.223H171.392V106.127H85.5796L77.7514 93.2688H22.337V94.3647H77.1314L84.9596 107.223Z" fill="black" fill-opacity="0.87"/>
<path d="M97.3394 139.424H183.772V138.328H97.9594L90.1311 125.47H34.7167V126.566H89.5111L97.3394 139.424Z" fill="black" fill-opacity="0.87"/>
<path d="M20.9304 96.1785C21.3973 96.1785 21.8537 96.0401 22.2419 95.7806C22.6301 95.5211 22.9326 95.1523 23.1113 94.7208C23.29 94.2894 23.3369 93.8146 23.2459 93.3565C23.1549 92.8983 22.9301 92.4775 22.6 92.1472C22.27 91.8169 21.8495 91.5918 21.3916 91.5006C20.9338 91.4093 20.4591 91.456 20.0277 91.6345C19.5963 91.8131 19.2275 92.1157 18.968 92.5039C18.7085 92.8921 18.5699 93.3486 18.5696 93.8157C18.5702 94.442 18.8191 95.0425 19.2617 95.4855C19.7042 95.9284 20.3044 96.1777 20.9304 96.1785ZM20.9304 92.551C21.1807 92.551 21.4254 92.6253 21.6335 92.7644C21.8416 92.9035 22.0037 93.1013 22.0994 93.3327C22.1952 93.564 22.2202 93.8186 22.1712 94.0642C22.1223 94.3097 22.0018 94.5353 21.8247 94.7123C21.6476 94.8892 21.422 95.0097 21.1765 95.0584C20.931 95.1071 20.6766 95.0819 20.4454 94.9859C20.2142 94.89 20.0167 94.7276 19.8778 94.5193C19.7389 94.311 19.6649 94.0661 19.6651 93.8157C19.666 93.4804 19.7996 93.159 20.0367 92.922C20.2739 92.685 20.5952 92.5516 20.9304 92.551V92.551Z" fill="black" fill-opacity="0.87"/>
<path d="M36.9462 104.635C37.4132 104.635 37.8697 104.497 38.258 104.237C38.6464 103.978 38.9491 103.609 39.128 103.178C39.3068 102.746 39.3538 102.271 39.2628 101.813C39.1718 101.355 38.9471 100.934 38.617 100.604C38.2869 100.273 37.8662 100.048 37.4082 99.9568C36.9503 99.8656 36.4755 99.9123 36.0441 100.091C35.6127 100.27 35.2439 100.572 34.9845 100.961C34.725 101.349 34.5865 101.806 34.5865 102.273C34.5874 102.899 34.8362 103.499 35.2785 103.942C35.7208 104.384 36.3206 104.634 36.9462 104.635V104.635ZM36.9462 101.007C37.1965 101.007 37.4412 101.081 37.6494 101.22C37.8576 101.359 38.02 101.557 38.1159 101.788C38.2118 102.019 38.2371 102.274 38.1884 102.519C38.1397 102.765 38.0193 102.991 37.8424 103.168C37.6655 103.345 37.44 103.466 37.1945 103.515C36.9491 103.563 36.6946 103.538 36.4633 103.443C36.2321 103.347 36.0344 103.185 35.8953 102.976C35.7563 102.768 35.682 102.524 35.682 102.273C35.6823 101.938 35.8155 101.616 36.0525 101.379C36.2895 101.141 36.6109 101.008 36.9462 101.007V101.007Z" fill="black" fill-opacity="0.87"/>
<path d="M47.3269 90.265C47.7938 90.265 48.2502 90.1265 48.6384 89.867C49.0266 89.6074 49.3292 89.2386 49.5079 88.807C49.6866 88.3755 49.7333 87.9006 49.6422 87.4425C49.5511 86.9844 49.3264 86.5635 48.9962 86.2332C48.666 85.903 48.2454 85.678 47.7875 85.5869C47.3295 85.4958 46.8548 85.5425 46.4235 85.7213C45.9921 85.9 45.6234 86.2027 45.364 86.5911C45.1046 86.9795 44.9661 87.4361 44.9661 87.9032C44.967 88.5294 45.216 89.1296 45.6586 89.5723C46.1011 90.015 46.701 90.2641 47.3269 90.265V90.265ZM47.3269 86.6385C47.5771 86.6385 47.8218 86.7128 48.0299 86.8519C48.238 86.9911 48.4002 87.1888 48.4959 87.4202C48.5917 87.6515 48.6167 87.9061 48.5677 88.1517C48.5188 88.3973 48.3983 88.6228 48.2212 88.7998C48.0441 88.9768 47.8185 89.0972 47.573 89.146C47.3275 89.1947 47.0731 89.1695 46.8419 89.0735C46.6107 88.9775 46.4132 88.8151 46.2743 88.6068C46.1354 88.3985 46.0614 88.1536 46.0616 87.9032C46.0625 87.5679 46.1961 87.2465 46.4332 87.0095C46.6704 86.7725 46.9916 86.6391 47.3269 86.6385V86.6385Z" fill="black" fill-opacity="0.87"/>
<path d="M106.349 95.8006C106.816 95.8006 107.272 95.6621 107.66 95.4026C108.048 95.1431 108.351 94.7742 108.53 94.3427C108.708 93.9111 108.755 93.4363 108.664 92.9781C108.573 92.52 108.348 92.0992 108.018 91.7689C107.688 91.4386 107.267 91.2137 106.809 91.1225C106.351 91.0314 105.877 91.0782 105.445 91.2569C105.014 91.4357 104.645 91.7384 104.386 92.1268C104.126 92.5152 103.988 92.9718 103.988 93.4389C103.989 94.065 104.238 94.6652 104.68 95.1079C105.123 95.5506 105.723 95.7997 106.349 95.8006V95.8006ZM106.349 92.1731C106.599 92.1731 106.844 92.2473 107.052 92.3864C107.26 92.5255 107.422 92.7232 107.518 92.9545C107.613 93.1858 107.638 93.4403 107.59 93.6858C107.541 93.9314 107.42 94.1569 107.243 94.3339C107.066 94.511 106.841 94.6315 106.596 94.6804C106.35 94.7292 106.096 94.7041 105.865 94.6083C105.633 94.5125 105.436 94.3503 105.297 94.1421C105.158 93.934 105.083 93.6892 105.083 93.4389C105.084 93.1033 105.217 92.7815 105.454 92.5441C105.692 92.3068 106.013 92.1734 106.349 92.1731V92.1731Z" fill="black" fill-opacity="0.87"/>
<path d="M90.7643 259.214C90.9408 259.215 91.1133 259.162 91.2601 259.064C91.4069 258.966 91.5214 258.827 91.589 258.664C91.6565 258.501 91.6742 258.321 91.6397 258.148C91.6052 257.975 91.5202 257.816 91.3953 257.691V257.691C91.228 257.524 91.1341 257.296 91.1341 257.06C91.1341 256.823 91.228 256.596 91.3953 256.429L92.929 254.894C93.0962 254.727 93.3229 254.633 93.5594 254.633C93.7959 254.633 94.0226 254.727 94.1898 254.894V254.894C94.3147 255.019 94.4737 255.104 94.6468 255.138C94.8199 255.173 94.9994 255.155 95.1624 255.088C95.3255 255.02 95.4648 254.906 95.5629 254.759C95.661 254.612 95.7135 254.439 95.7136 254.263V254.263C95.7136 254.026 95.8076 253.799 95.9748 253.632C96.142 253.465 96.3688 253.371 96.6053 253.371H98.7667C99.0032 253.371 99.23 253.465 99.3972 253.632C99.5644 253.799 99.6584 254.026 99.6584 254.263C99.6586 254.439 99.711 254.612 99.8091 254.759C99.9072 254.906 100.047 255.02 100.21 255.088C100.373 255.155 100.552 255.173 100.725 255.138C100.898 255.104 101.057 255.019 101.182 254.894V254.894C101.349 254.727 101.576 254.633 101.813 254.633C102.049 254.633 102.276 254.727 102.443 254.894L103.977 256.429C104.144 256.596 104.238 256.823 104.238 257.06C104.238 257.296 104.144 257.524 103.977 257.691C103.852 257.816 103.767 257.975 103.732 258.148C103.698 258.321 103.715 258.501 103.783 258.664C103.851 258.827 103.965 258.966 104.112 259.064C104.259 259.162 104.431 259.215 104.608 259.214C104.845 259.214 105.072 259.308 105.239 259.476C105.407 259.643 105.501 259.871 105.501 260.108V262.27C105.5 262.507 105.406 262.733 105.239 262.901C105.071 263.068 104.844 263.162 104.608 263.162V263.162C104.431 263.162 104.259 263.214 104.112 263.312C103.965 263.41 103.851 263.549 103.783 263.712C103.715 263.876 103.698 264.055 103.732 264.228C103.767 264.401 103.852 264.56 103.977 264.685V264.685C104.144 264.853 104.238 265.08 104.238 265.317C104.238 265.553 104.144 265.78 103.977 265.948L102.443 267.477C102.276 267.644 102.049 267.738 101.813 267.738C101.576 267.738 101.349 267.644 101.182 267.477C101.057 267.352 100.898 267.267 100.725 267.232C100.552 267.198 100.373 267.216 100.21 267.283C100.047 267.351 99.9072 267.465 99.8091 267.612C99.711 267.759 99.6586 267.931 99.6584 268.108C99.6586 268.225 99.6356 268.341 99.5909 268.449C99.5461 268.558 99.4804 268.656 99.3976 268.739C99.3147 268.822 99.2164 268.888 99.1081 268.932C98.9999 268.977 98.8838 269 98.7667 269H96.6053C96.4882 269 96.3722 268.977 96.2639 268.932C96.1557 268.888 96.0573 268.822 95.9745 268.739C95.8916 268.656 95.826 268.558 95.7812 268.449C95.7365 268.341 95.7135 268.225 95.7136 268.108V268.108C95.7135 267.931 95.661 267.759 95.5629 267.612C95.4648 267.465 95.3255 267.351 95.1624 267.283C94.9994 267.216 94.8199 267.198 94.6468 267.232C94.4737 267.267 94.3147 267.352 94.1898 267.477C94.0226 267.644 93.7959 267.738 93.5594 267.738C93.3229 267.738 93.0962 267.644 92.929 267.477L91.3953 265.948C91.228 265.78 91.1341 265.553 91.1341 265.317C91.1341 265.08 91.228 264.853 91.3953 264.685V264.685C91.5202 264.56 91.6052 264.401 91.6397 264.228C91.6742 264.055 91.6565 263.876 91.589 263.712C91.5214 263.549 91.4069 263.41 91.2601 263.312C91.1133 263.214 90.9408 263.162 90.7643 263.162V263.162C90.5277 263.162 90.3008 263.068 90.1334 262.901C89.966 262.733 89.8718 262.507 89.8715 262.27V260.108C89.8715 259.99 89.8945 259.874 89.9394 259.766C89.9843 259.657 90.0501 259.559 90.133 259.476C90.2159 259.393 90.3143 259.327 90.4226 259.282C90.5309 259.237 90.647 259.214 90.7643 259.214V259.214ZM97.68 266.168C98.6646 266.168 99.6271 265.876 100.446 265.329C101.265 264.782 101.903 264.005 102.28 263.095C102.657 262.185 102.755 261.183 102.563 260.217C102.371 259.251 101.897 258.364 101.201 257.667C100.505 256.971 99.6183 256.496 98.6526 256.304C97.687 256.112 96.6861 256.21 95.7764 256.587C94.8668 256.964 94.0893 257.602 93.5423 258.421C92.9953 259.24 92.7033 260.203 92.7033 261.188C92.7032 261.842 92.8318 262.49 93.0818 263.094C93.3318 263.698 93.6984 264.247 94.1606 264.709C94.6227 265.172 95.1713 265.539 95.7752 265.789C96.3791 266.039 97.0263 266.168 97.68 266.168Z" fill="black" fill-opacity="0.87"/>
<path d="M94.4835 261.188C94.4835 261.821 94.6709 262.439 95.0221 262.965C95.3733 263.491 95.8725 263.901 96.4565 264.143C97.0406 264.385 97.6832 264.448 98.3033 264.325C98.9233 264.201 99.4929 263.897 99.94 263.45C100.387 263.003 100.692 262.433 100.815 261.813C100.939 261.192 100.875 260.55 100.634 259.965C100.392 259.381 99.9823 258.881 99.4568 258.53C98.9313 258.178 98.3134 257.99 97.6812 257.99C97.2613 257.99 96.8455 258.073 96.4575 258.233C96.0696 258.394 95.7171 258.63 95.4201 258.926C95.1232 259.223 94.8876 259.576 94.7269 259.964C94.5662 260.352 94.4835 260.768 94.4835 261.188V261.188Z" fill="black" fill-opacity="0.87"/>
<path d="M110.98 49.1166C111.068 49.1165 111.154 49.0902 111.228 49.0411C111.301 48.992 111.358 48.9223 111.392 48.8408C111.425 48.7593 111.434 48.6696 111.417 48.5831C111.399 48.4966 111.357 48.4172 111.295 48.3549V48.3549C111.253 48.3135 111.22 48.2643 111.198 48.2101C111.175 48.156 111.164 48.0979 111.164 48.0393C111.164 47.9806 111.175 47.9226 111.198 47.8684C111.22 47.8143 111.253 47.7651 111.295 47.7237L112.061 46.9565C112.103 46.915 112.152 46.8821 112.206 46.8596C112.26 46.8372 112.318 46.8256 112.377 46.8256C112.435 46.8256 112.494 46.8372 112.548 46.8596C112.602 46.8821 112.651 46.915 112.692 46.9565V46.9565C112.754 47.0209 112.834 47.0651 112.922 47.0835C113.009 47.1019 113.1 47.0935 113.183 47.0594C113.266 47.0254 113.336 46.9673 113.385 46.8927C113.435 46.818 113.46 46.7303 113.459 46.6409C113.459 46.5226 113.506 46.4091 113.59 46.3255C113.673 46.2418 113.787 46.1948 113.905 46.1948H114.986C115.105 46.1948 115.218 46.2418 115.302 46.3255C115.385 46.4091 115.432 46.5226 115.432 46.6409C115.431 46.7303 115.457 46.818 115.506 46.8927C115.555 46.9673 115.626 47.0254 115.708 47.0594C115.791 47.0935 115.882 47.1019 115.969 47.0835C116.057 47.0651 116.137 47.0209 116.199 46.9565V46.9565C116.24 46.915 116.29 46.8821 116.344 46.8596C116.398 46.8372 116.456 46.8256 116.514 46.8256C116.573 46.8256 116.631 46.8372 116.685 46.8596C116.739 46.8821 116.789 46.915 116.83 46.9565L117.597 47.7237C117.638 47.7651 117.671 47.8143 117.694 47.8684C117.716 47.9226 117.728 47.9806 117.728 48.0393C117.728 48.0979 117.716 48.156 117.694 48.2101C117.671 48.2643 117.638 48.3135 117.597 48.3549V48.3549C117.534 48.4173 117.492 48.4968 117.475 48.5834C117.457 48.67 117.466 48.7597 117.5 48.8413C117.534 48.9229 117.591 48.9926 117.664 49.0416C117.738 49.0906 117.824 49.1167 117.912 49.1166C118.031 49.1166 118.145 49.1637 118.228 49.2476C118.312 49.3314 118.359 49.4451 118.359 49.5637V50.6443C118.359 50.7627 118.312 50.8762 118.228 50.9598C118.144 51.0434 118.031 51.0904 117.912 51.0904C117.824 51.0903 117.738 51.1164 117.664 51.1654C117.591 51.2144 117.534 51.2841 117.5 51.3657C117.466 51.4472 117.457 51.537 117.475 51.6235C117.492 51.7101 117.534 51.7896 117.597 51.852V51.852C117.638 51.8935 117.671 51.9427 117.694 51.9968C117.716 52.051 117.728 52.109 117.728 52.1677C117.728 52.2263 117.716 52.2843 117.694 52.3385C117.671 52.3927 117.638 52.4419 117.597 52.4833L116.83 53.2504C116.789 53.2919 116.739 53.3248 116.685 53.3473C116.631 53.3698 116.573 53.3813 116.514 53.3813C116.456 53.3813 116.398 53.3698 116.344 53.3473C116.29 53.3248 116.24 53.2919 116.199 53.2504V53.2504C116.137 53.186 116.057 53.1418 115.969 53.1234C115.882 53.1051 115.791 53.1135 115.708 53.1475C115.626 53.1815 115.555 53.2396 115.506 53.3143C115.457 53.3889 115.431 53.4766 115.432 53.5661V53.5661C115.432 53.6246 115.421 53.6827 115.398 53.7368C115.376 53.7909 115.343 53.84 115.302 53.8815C115.26 53.9229 115.211 53.9557 115.157 53.9782C115.103 54.0006 115.045 54.0121 114.986 54.0121H113.905C113.847 54.0121 113.789 54.0006 113.734 53.9782C113.68 53.9557 113.631 53.9229 113.59 53.8815C113.548 53.84 113.516 53.7909 113.493 53.7368C113.471 53.6827 113.459 53.6246 113.459 53.5661V53.5661C113.46 53.4766 113.435 53.3889 113.385 53.3143C113.336 53.2396 113.266 53.1815 113.183 53.1475C113.1 53.1135 113.009 53.1051 112.922 53.1234C112.834 53.1418 112.754 53.186 112.692 53.2504C112.651 53.2919 112.602 53.3248 112.548 53.3473C112.494 53.3698 112.435 53.3813 112.377 53.3813C112.318 53.3813 112.26 53.3698 112.206 53.3473C112.152 53.3248 112.103 53.2919 112.061 53.2504L111.295 52.4833C111.253 52.4419 111.22 52.3927 111.198 52.3385C111.175 52.2843 111.164 52.2263 111.164 52.1677C111.164 52.109 111.175 52.051 111.198 51.9968C111.22 51.9427 111.253 51.8935 111.295 51.852V51.852C111.357 51.7897 111.399 51.7103 111.417 51.6238C111.434 51.5373 111.425 51.4477 111.392 51.3662C111.358 51.2846 111.301 51.2149 111.228 51.1658C111.154 51.1167 111.068 51.0905 110.98 51.0904V51.0904C110.862 51.0904 110.748 51.0434 110.664 50.9598C110.581 50.8762 110.534 50.7627 110.533 50.6443V49.5637C110.533 49.4451 110.58 49.3314 110.664 49.2476C110.748 49.1637 110.862 49.1166 110.98 49.1166V49.1166ZM114.437 52.594C114.93 52.5942 115.411 52.4483 115.82 52.1749C116.23 51.9014 116.549 51.5126 116.738 51.0576C116.926 50.6027 116.976 50.102 116.88 49.6189C116.784 49.1359 116.547 48.6921 116.199 48.3437C115.851 47.9954 115.407 47.7581 114.925 47.662C114.442 47.5658 113.941 47.6151 113.486 47.8035C113.031 47.9919 112.643 48.3111 112.369 48.7206C112.096 49.1301 111.95 49.6115 111.95 50.104C111.95 50.7642 112.212 51.3974 112.678 51.8643C113.145 52.3312 113.778 52.5937 114.437 52.594V52.594Z" fill="black" fill-opacity="0.87"/>
<path d="M112.839 50.1041C112.839 50.4203 112.933 50.7295 113.109 50.9924C113.284 51.2554 113.534 51.4603 113.826 51.5814C114.118 51.7024 114.439 51.734 114.749 51.6723C115.059 51.6106 115.344 51.4584 115.568 51.2347C115.791 51.0111 115.943 50.7262 116.005 50.416C116.067 50.1059 116.035 49.7844 115.914 49.4922C115.793 49.2 115.588 48.9503 115.325 48.7746C115.063 48.5989 114.754 48.5051 114.437 48.5051C114.014 48.5051 113.607 48.6736 113.307 48.9735C113.008 49.2733 112.839 49.68 112.839 50.1041V50.1041Z" fill="black" fill-opacity="0.87"/>
<path d="M72.4601 63.7774C72.5707 63.7775 72.6789 63.7448 72.7709 63.6834C72.8629 63.622 72.9347 63.5347 72.9771 63.4324C73.0194 63.3302 73.0304 63.2177 73.0088 63.1092C72.9872 63.0007 72.9339 62.901 72.8556 62.8228V62.8228C72.7509 62.718 72.692 62.5759 72.692 62.4277C72.692 62.2796 72.7509 62.1375 72.8556 62.0326L73.813 61.0748C73.9177 60.9701 74.0598 60.9112 74.2079 60.9112C74.356 60.9112 74.498 60.9701 74.6028 61.0748V61.0748C74.6809 61.1531 74.7804 61.2064 74.8888 61.2281C74.9972 61.2497 75.1096 61.2388 75.2117 61.1965C75.3139 61.1543 75.4012 61.0827 75.4627 60.9908C75.5241 60.8989 75.5569 60.7908 75.557 60.6803V60.6803C75.557 60.532 75.6158 60.3899 75.7206 60.2851C75.8254 60.1802 75.9675 60.1213 76.1156 60.1213H77.4697C77.6178 60.1213 77.76 60.1802 77.8648 60.2851C77.9695 60.3899 78.0284 60.532 78.0284 60.6803C78.0281 60.7908 78.0607 60.899 78.122 60.991C78.1834 61.083 78.2706 61.1547 78.3728 61.197C78.4749 61.2393 78.5873 61.2502 78.6957 61.2285C78.804 61.2067 78.9035 61.1532 78.9814 61.0748V61.0748C79.0864 60.97 79.2286 60.9111 79.3769 60.9111C79.5252 60.9111 79.6674 60.97 79.7723 61.0748L80.7298 62.0326C80.8345 62.1375 80.8933 62.2796 80.8933 62.4277C80.8933 62.5759 80.8345 62.718 80.7298 62.8228C80.6516 62.9009 80.5982 63.0005 80.5766 63.1089C80.5549 63.2173 80.5659 63.3298 80.6081 63.4319C80.6503 63.5341 80.7219 63.6215 80.8138 63.683C80.9056 63.7445 81.0136 63.7773 81.1242 63.7774C81.2723 63.7774 81.4145 63.8363 81.5192 63.9411C81.624 64.0459 81.6829 64.1881 81.6829 64.3363V65.6909C81.6829 65.8391 81.624 65.9813 81.5192 66.0861C81.4145 66.1909 81.2723 66.2498 81.1242 66.2498C81.0136 66.2498 80.9056 66.2827 80.8138 66.3442C80.7219 66.4057 80.6503 66.493 80.6081 66.5952C80.5659 66.6974 80.5549 66.8098 80.5766 66.9183C80.5982 67.0267 80.6516 67.1262 80.7298 67.2043V67.2043C80.8345 67.3092 80.8933 67.4513 80.8933 67.5994C80.8933 67.7476 80.8345 67.8897 80.7298 67.9945L79.7723 68.9524C79.6674 69.0572 79.5252 69.116 79.3769 69.116C79.2286 69.116 79.0864 69.0572 78.9814 68.9524V68.9524C78.9034 68.8739 78.8039 68.8204 78.6954 68.7986C78.5869 68.7769 78.4744 68.788 78.3722 68.8304C78.2701 68.8728 78.1828 68.9447 78.1216 69.0368C78.0603 69.129 78.0279 69.2373 78.0284 69.348V69.348C78.0281 69.4961 77.9691 69.6381 77.8644 69.7429C77.7597 69.8476 77.6178 69.9066 77.4697 69.9069H76.1156C75.9675 69.9069 75.8254 69.848 75.7206 69.7432C75.6158 69.6384 75.557 69.4962 75.557 69.348V69.348C75.5572 69.2373 75.5244 69.1291 75.4631 69.037C75.4017 68.945 75.3144 68.8732 75.2122 68.8308C75.11 68.7885 74.9975 68.7774 74.889 68.799C74.7806 68.8207 74.6809 68.874 74.6028 68.9524V68.9524C74.498 69.0571 74.356 69.1159 74.2079 69.1159C74.0598 69.1159 73.9177 69.0571 73.813 68.9524L72.8556 67.9945C72.7509 67.8897 72.692 67.7476 72.692 67.5994C72.692 67.4513 72.7509 67.3092 72.8556 67.2043C72.9339 67.1262 72.9872 67.0265 73.0088 66.918C73.0304 66.8095 73.0194 66.697 72.9771 66.5947C72.9347 66.4925 72.8629 66.4051 72.7709 66.3437C72.6789 66.2823 72.5707 66.2496 72.4601 66.2498V66.2498C72.3119 66.2498 72.1698 66.1909 72.0651 66.0861C71.9603 65.9813 71.9014 65.8391 71.9014 65.6909V64.3363C71.9017 64.1882 71.9606 64.0462 72.0653 63.9414C72.17 63.8366 72.312 63.7777 72.4601 63.7774ZM76.7927 68.1326C77.4093 68.1326 78.012 67.9497 78.5248 67.607C79.0375 67.2642 79.4371 66.7771 79.673 66.2072C79.909 65.6373 79.9708 65.0101 79.8505 64.4051C79.7302 63.8001 79.4332 63.2443 78.9972 62.8081C78.5612 62.3719 78.0057 62.0748 77.4009 61.9545C76.7962 61.8341 76.1693 61.8959 75.5996 62.132C75.0299 62.3681 74.5429 62.7678 74.2004 63.2807C73.8578 63.7937 73.675 64.3967 73.675 65.0136C73.675 65.8408 74.0034 66.6341 74.5881 67.2191C75.1728 67.804 75.9658 68.1326 76.7927 68.1326V68.1326Z" fill="black" fill-opacity="0.87"/>
<path d="M74.7902 65.0136C74.7904 65.4095 74.9079 65.7965 75.1279 66.1256C75.3479 66.4547 75.6605 66.7112 76.0262 66.8626C76.3919 67.014 76.7942 67.0536 77.1823 66.9763C77.5704 66.899 77.927 66.7083 78.2068 66.4283C78.4867 66.1484 78.6773 65.7917 78.7545 65.4034C78.8318 65.0151 78.7923 64.6126 78.6409 64.2468C78.4896 63.881 78.2332 63.5682 77.9042 63.3482C77.5753 63.1281 77.1885 63.0105 76.7927 63.0103C76.2616 63.0103 75.7522 63.2213 75.3767 63.597C75.0011 63.9727 74.7902 64.4823 74.7902 65.0136Z" fill="black" fill-opacity="0.87"/>
<path d="M54.7937 69.3433C54.9603 69.3435 55.1232 69.2943 55.2618 69.2018C55.4004 69.1093 55.5085 68.9778 55.5723 68.8238C55.6361 68.6698 55.6527 68.5004 55.6201 68.3369C55.5876 68.1735 55.5073 68.0233 55.3893 67.9056V67.9056C55.2317 67.7478 55.143 67.5337 55.143 67.3106C55.143 67.0874 55.2317 66.8734 55.3893 66.7155L56.8313 65.2729C56.9891 65.1152 57.2031 65.0266 57.4261 65.0266C57.6492 65.0266 57.8631 65.1152 58.0209 65.2729V65.2729C58.1384 65.3908 58.2883 65.4711 58.4516 65.5038C58.6148 65.5364 58.7841 65.5199 58.9379 65.4563C59.0918 65.3927 59.2233 65.2848 59.3159 65.1464C59.4084 65.008 59.4579 64.8452 59.458 64.6787V64.6787C59.458 64.4554 59.5466 64.2414 59.7044 64.0835C59.8622 63.9256 60.0762 63.8369 60.2993 63.8369H62.3386C62.5618 63.8369 62.7759 63.9256 62.9337 64.0835C63.0915 64.2414 63.1801 64.4554 63.1801 64.6787C63.1797 64.8452 63.2288 65.0082 63.3212 65.1467C63.4135 65.2853 63.545 65.3933 63.6988 65.457C63.8526 65.5206 64.0219 65.5371 64.1851 65.5044C64.3483 65.4716 64.4981 65.391 64.6155 65.2729V65.2729C64.7736 65.1151 64.9878 65.0264 65.2111 65.0264C65.4345 65.0264 65.6486 65.1151 65.8067 65.2729L67.2487 66.7155C67.4064 66.8734 67.495 67.0874 67.495 67.3106C67.495 67.5337 67.4064 67.7478 67.2487 67.9056C67.1309 68.0232 67.0506 68.1732 67.0179 68.3365C66.9853 68.4998 67.0019 68.6691 67.0655 68.823C67.1291 68.9769 67.2369 69.1085 67.3752 69.2011C67.5136 69.2937 67.6762 69.3432 67.8427 69.3433C68.0658 69.3433 68.2799 69.432 68.4377 69.5898C68.5955 69.7477 68.6841 69.9618 68.6841 70.1851V72.2252C68.6841 72.4485 68.5955 72.6626 68.4377 72.8204C68.2799 72.9783 68.0658 73.067 67.8427 73.067C67.6762 73.0671 67.5136 73.1166 67.3752 73.2092C67.2369 73.3018 67.1291 73.4333 67.0655 73.5873C67.0019 73.7412 66.9853 73.9105 67.0179 74.0738C67.0506 74.2371 67.1309 74.387 67.2487 74.5047V74.5047C67.4064 74.6625 67.495 74.8765 67.495 75.0997C67.495 75.3229 67.4064 75.5369 67.2487 75.6947L65.8067 77.1373C65.6486 77.2952 65.4345 77.3838 65.2111 77.3838C64.9878 77.3838 64.7736 77.2952 64.6155 77.1373V77.1373C64.498 77.0191 64.3481 76.9385 64.1847 76.9058C64.0213 76.8731 63.8519 76.8897 63.698 76.9536C63.5441 77.0175 63.4127 77.1258 63.3205 77.2646C63.2282 77.4034 63.1794 77.5665 63.1801 77.7332V77.7332C63.1797 77.9563 63.0909 78.1702 62.9332 78.328C62.7755 78.4857 62.5617 78.5746 62.3386 78.575H60.2993C60.0762 78.575 59.8622 78.4863 59.7044 78.3285C59.5466 78.1706 59.458 77.9565 59.458 77.7332V77.7332C59.4582 77.5665 59.4089 77.4035 59.3165 77.2649C59.224 77.1262 59.0926 77.0181 58.9387 76.9543C58.7847 76.8905 58.6153 76.8738 58.452 76.9064C58.2886 76.939 58.1385 77.0194 58.0209 77.1373V77.1373C57.8631 77.2951 57.6492 77.3837 57.4261 77.3837C57.2031 77.3837 56.9891 77.2951 56.8313 77.1373L55.3893 75.6947C55.2317 75.5369 55.143 75.3229 55.143 75.0997C55.143 74.8765 55.2317 74.6625 55.3893 74.5047C55.5073 74.3869 55.5876 74.2368 55.6201 74.0734C55.6527 73.9099 55.6361 73.7405 55.5723 73.5865C55.5085 73.4325 55.4004 73.301 55.2618 73.2085C55.1232 73.116 54.9603 73.0667 54.7937 73.067V73.067C54.5705 73.067 54.3565 72.9783 54.1987 72.8204C54.0409 72.6626 53.9522 72.4485 53.9522 72.2252V70.1851C53.9527 69.962 54.0414 69.7481 54.1991 69.5903C54.3568 69.4325 54.5706 69.3437 54.7937 69.3433ZM61.319 75.9027C62.2477 75.9027 63.1555 75.6272 63.9277 75.111C64.6999 74.5949 65.3018 73.8612 65.6572 73.0028C66.0126 72.1444 66.1056 71.1999 65.9244 70.2887C65.7432 69.3774 65.296 68.5404 64.6393 67.8834C63.9826 67.2265 63.146 66.7791 62.2351 66.5978C61.3243 66.4166 60.3801 66.5096 59.5221 66.8651C58.6641 67.2207 57.9307 67.8228 57.4147 68.5953C56.8988 69.3678 56.6234 70.276 56.6234 71.2051C56.6234 72.451 57.1181 73.6459 57.9987 74.5268C58.8793 75.4078 60.0737 75.9027 61.319 75.9027V75.9027Z" fill="black" fill-opacity="0.87"/>
<path d="M58.3032 71.2053C58.3035 71.8016 58.4805 72.3844 58.8118 72.88C59.1432 73.3757 59.614 73.762 60.1647 73.99C60.7155 74.218 61.3214 74.2776 61.906 74.1612C62.4905 74.0448 63.0276 73.7576 63.449 73.336C63.8705 72.9143 64.1575 72.3771 64.2739 71.7923C64.3902 71.2075 64.3307 70.6013 64.1028 70.0503C63.8748 69.4994 63.4887 69.0284 62.9932 68.6969C62.4978 68.3654 61.9152 68.1883 61.3192 68.188C60.5193 68.188 59.7521 68.5059 59.1865 69.0717C58.6209 69.6376 58.3032 70.405 58.3032 71.2053Z" fill="black" fill-opacity="0.87"/>
<path d="M226.098 62.0628C236.472 86.4545 224.253 108.368 224.253 108.368C224.253 108.368 231.861 124.798 232.091 131.769C232.322 138.739 225.175 135.005 223.792 137.494C222.409 139.984 225.137 145.345 223.099 146.457C218.698 148.861 221.456 152.503 220.648 154.679C219.875 156.758 215.265 153.428 214.571 159.651C213.876 165.874 204.885 180.812 191.514 167.866C178.142 154.92 168.459 134.507 168.459 134.507C168.459 134.507 178.142 118.076 181.833 102.143C185.525 86.2106 179.99 69.0327 173.303 58.8256C166.617 48.6185 165.926 32.9361 168.462 28.7029C168.461 28.7029 213.398 32.198 226.098 62.0628Z" fill="black"/>
<path d="M193.474 64.2508V91.3807C193.145 95.3543 191.83 99.6569 187.858 101.315C183.886 102.973 179.914 110.248 185.872 116.538C191.83 122.827 193.474 131.761 193.474 131.761L202.014 173.662L212.57 177.753C214.763 178.603 217.193 178.613 219.393 177.78L222.045 176.776C223.857 176.09 225.416 174.869 226.517 173.274C227.618 171.68 228.207 169.788 228.207 167.851V163.193L232.179 157.562C235.823 154.588 233.727 149.245 233.727 149.245L233.863 149.121L236.15 146.971C236.623 146.224 236.839 145.344 236.766 144.463C236.602 142.285 234.821 140.695 234.821 140.695C233.493 130.104 242.437 128.117 242.437 128.117C248.051 125.801 244.75 122.157 244.75 122.157L224.234 97.6711C228.206 90.3954 224.563 81.1327 224.563 81.1327L223.576 73.1856C218.126 37.944 175.955 35.9709 175.955 35.9709V52.3437C182.898 53.33 189.185 56.975 189.185 56.975C193.474 58.9619 193.474 64.2508 193.474 64.2508Z" fill="black"/>
<path d="M219.624 110.162C219.482 108.754 218.393 107.034 217.972 105.981C217.654 105.185 217.565 104.317 217.715 103.473C217.865 102.629 218.247 101.844 218.819 101.207C219.441 100.513 220.063 99.4112 220.5 97.6621C220.5 97.6621 217.027 100.888 212.314 100.64C212.314 100.64 206.113 100.888 203.88 104.611L214.801 111.817C216.136 112.698 218.637 112.959 219.457 111.311C219.62 110.952 219.678 110.554 219.624 110.162V110.162Z" fill="white"/>
<path d="M355.712 156.232H329.024L324.608 169H310.496L334.592 101.896H350.24L374.336 169H360.128L355.712 156.232ZM352.064 145.48L342.368 117.448L332.672 145.48H352.064ZM396.783 101.992V169H383.343V101.992H396.783ZM429.673 135.4C429.673 128.808 431.145 122.92 434.089 117.736C437.097 112.488 441.161 108.424 446.281 105.544C451.465 102.6 457.257 101.128 463.657 101.128C471.145 101.128 477.705 103.048 483.337 106.888C488.969 110.728 492.905 116.04 495.145 122.824H479.689C478.153 119.624 475.977 117.224 473.161 115.624C470.409 114.024 467.209 113.224 463.561 113.224C459.657 113.224 456.169 114.152 453.097 116.008C450.089 117.8 447.721 120.36 445.993 123.688C444.329 127.016 443.497 130.92 443.497 135.4C443.497 139.816 444.329 143.72 445.993 147.112C447.721 150.44 450.089 153.032 453.097 154.888C456.169 156.68 459.657 157.576 463.561 157.576C467.209 157.576 470.409 156.776 473.161 155.176C475.977 153.512 478.153 151.08 479.689 147.88H495.145C492.905 154.728 488.969 160.072 483.337 163.912C477.769 167.688 471.209 169.576 463.657 169.576C457.257 169.576 451.465 168.136 446.281 165.256C441.161 162.312 437.097 158.248 434.089 153.064C431.145 147.88 429.673 141.992 429.673 135.4ZM503.168 142.216C503.168 136.84 504.224 132.072 506.336 127.912C508.512 123.752 511.424 120.552 515.072 118.312C518.784 116.072 522.912 114.952 527.456 114.952C531.424 114.952 534.88 115.752 537.824 117.352C540.832 118.952 543.232 120.968 545.024 123.4V115.816H558.56V169H545.024V161.224C543.296 163.72 540.896 165.8 537.824 167.464C534.816 169.064 531.328 169.864 527.36 169.864C522.88 169.864 518.784 168.712 515.072 166.408C511.424 164.104 508.512 160.872 506.336 156.712C504.224 152.488 503.168 147.656 503.168 142.216ZM545.024 142.408C545.024 139.144 544.384 136.36 543.104 134.056C541.824 131.688 540.096 129.896 537.92 128.68C535.744 127.4 533.408 126.76 530.912 126.76C528.416 126.76 526.112 127.368 524 128.584C521.888 129.8 520.16 131.592 518.816 133.96C517.536 136.264 516.896 139.016 516.896 142.216C516.896 145.416 517.536 148.232 518.816 150.664C520.16 153.032 521.888 154.856 524 156.136C526.176 157.416 528.48 158.056 530.912 158.056C533.408 158.056 535.744 157.448 537.92 156.232C540.096 154.952 541.824 153.16 543.104 150.856C544.384 148.488 545.024 145.672 545.024 142.408ZM601.159 115.048C607.495 115.048 612.615 117.064 616.519 121.096C620.423 125.064 622.375 130.632 622.375 137.8V169H608.935V139.624C608.935 135.4 607.879 132.168 605.767 129.928C603.655 127.624 600.775 126.472 597.127 126.472C593.415 126.472 590.471 127.624 588.295 129.928C586.183 132.168 585.127 135.4 585.127 139.624V169H571.687V115.816H585.127V122.44C586.919 120.136 589.191 118.344 591.943 117.064C594.759 115.72 597.831 115.048 601.159 115.048ZM657.331 156.616L670.771 115.816H685.075L665.395 169H649.075L629.491 115.816H643.891L657.331 156.616ZM689.168 142.216C689.168 136.84 690.224 132.072 692.336 127.912C694.512 123.752 697.424 120.552 701.072 118.312C704.784 116.072 708.912 114.952 713.456 114.952C717.424 114.952 720.88 115.752 723.824 117.352C726.832 118.952 729.232 120.968 731.024 123.4V115.816H744.56V169H731.024V161.224C729.296 163.72 726.896 165.8 723.824 167.464C720.816 169.064 717.328 169.864 713.36 169.864C708.88 169.864 704.784 168.712 701.072 166.408C697.424 164.104 694.512 160.872 692.336 156.712C690.224 152.488 689.168 147.656 689.168 142.216ZM731.024 142.408C731.024 139.144 730.384 136.36 729.104 134.056C727.824 131.688 726.096 129.896 723.92 128.68C721.744 127.4 719.408 126.76 716.912 126.76C714.416 126.76 712.112 127.368 710 128.584C707.888 129.8 706.16 131.592 704.816 133.96C703.536 136.264 702.896 139.016 702.896 142.216C702.896 145.416 703.536 148.232 704.816 150.664C706.16 153.032 707.888 154.856 710 156.136C712.176 157.416 714.48 158.056 716.912 158.056C719.408 158.056 721.744 157.448 723.92 156.232C726.096 154.952 727.824 153.16 729.104 150.856C730.384 148.488 731.024 145.672 731.024 142.408ZM778.039 169.864C773.687 169.864 769.783 169.096 766.327 167.56C762.871 165.96 760.119 163.816 758.071 161.128C756.087 158.44 754.999 155.464 754.807 152.2H768.343C768.599 154.248 769.591 155.944 771.319 157.288C773.111 158.632 775.319 159.304 777.943 159.304C780.503 159.304 782.487 158.792 783.895 157.768C785.367 156.744 786.103 155.432 786.103 153.832C786.103 152.104 785.207 150.824 783.415 149.992C781.687 149.096 778.903 148.136 775.062 147.112C771.095 146.152 767.831 145.16 765.271 144.136C762.775 143.112 760.599 141.544 758.743 139.432C756.951 137.32 756.055 134.472 756.055 130.888C756.055 127.944 756.887 125.256 758.551 122.824C760.279 120.392 762.711 118.472 765.847 117.064C769.047 115.656 772.791 114.952 777.079 114.952C783.415 114.952 788.471 116.552 792.247 119.752C796.023 122.888 798.103 127.144 798.487 132.52H785.623C785.431 130.408 784.535 128.744 782.935 127.528C781.399 126.248 779.319 125.608 776.695 125.608C774.263 125.608 772.375 126.056 771.031 126.952C769.751 127.848 769.111 129.096 769.111 130.696C769.111 132.488 770.007 133.864 771.799 134.824C773.591 135.72 776.375 136.648 780.151 137.608C783.991 138.568 787.159 139.56 789.655 140.584C792.151 141.608 794.295 143.208 796.087 145.384C797.943 147.496 798.903 150.312 798.967 153.832C798.967 156.904 798.103 159.656 796.375 162.088C794.711 164.52 792.279 166.44 789.079 167.848C785.943 169.192 782.263 169.864 778.039 169.864Z" fill="black"/>
</svg>
